<?xml version="1.0" encoding="utf-8"?>
<!-- Generator: Adobe Illustrator 18.1.0, SVG Export Plug-In . SVG Version: 6.00 Build 0)  -->
<svg version="1.1" id="Layer_1" xmlns="http://www.w3.org/2000/svg" xmlns:xlink="http://www.w3.org/1999/xlink" x="0px" y="0px"
	 viewBox="0 0 506.1 506.1" enable-background="new 0 0 506.1 506.1" xml:space="preserve">
<g>
	<g>
		<g>
			<path fill="#FFFFFF" d="M252.8,6.3L252.8,6.3c136.1,0,246.9,110.6,247,246.6c0.1,136.1-110.5,246.9-246.5,247H253
				C117.1,499.8,6.4,389.2,6.3,253.3C6.2,187.3,31.8,125.4,78.4,78.7C125,32,186.9,6.3,252.8,6.3 M252.8,0
				C185.2,0.1,121.7,26.4,73.9,74.3c-47.8,47.8-74,111.4-73.9,179c0.1,139.4,113.6,252.8,253,252.8h0.2
				c139.5-0.1,252.9-113.7,252.8-253.3C506,113.4,392.4,0,252.8,0L252.8,0z"/>
		</g>
		<path fill="#FFFFFF" d="M207.2,97.2v63c0,25.4,20.6,46.1,46.1,46.1c25.5,0,46.1-20.6,46.1-46.1v-63H207.2z M214.7,170.9l5.9-10.1
			l5.9,10.1H214.7z M234,170.9l-9.6-16.7l4.6-7.6l13.9,24.4H234z M250.5,170.9L232.6,140l4.5-7.7l22.1,38.6H250.5z M266.9,170.9
			l-26.1-45.1l4.4-7.4l30.1,52.5H266.9z M283,170.9l-34.1-59.2l4.5-7.6l38.3,66.7H283z"/>
		<g>
			<g>
				<g>
					<path fill="#FFFFFF" d="M115.4,290.2h7.1c11.7,0,13.1-6.9,13.1-24.8c0-17.9-1.5-24.8-13.1-24.8h-7.1V290.2z M125.4,228
						c20,0,26.3,10.6,26.3,37.5c0,26.9-6.2,37.5-26.3,37.5H99.6V228H125.4z M159.8,228h40.6v12.7h-24.7v16h22.7v13.1h-22.7v20h24.7
						v13.2h-40.6V228z M243.7,273.3l-7.5-31l-7.9,31H243.7z M246.8,286.4H225l-4,16.7h-15.7l21.2-75.1h20l20.8,75.1h-16.5
						L246.8,286.4z M272.3,228H288v32.6l19.5-32.6h16.4l-21.7,34.5l21.7,40.6h-18.2L288,266.6v36.5h-15.6V228z M330.8,228H346v75.1
						h-15.2V228z M369.7,253.9v49.2h-13.6V228H375l18.2,46.2V228h13.7v75.1h-17.2L369.7,253.9z"/>
				</g>
			</g>
			<g>
				<path fill="#FFFFFF" d="M123.5,346.5v-25.7c0-0.2,0.2-0.4,0.6-0.6s0.9-0.3,1.4-0.4s1.1-0.2,1.7-0.3c0.6-0.1,1-0.1,1.4-0.1
					c0.5,0,0.9,0.2,1.2,0.5c0.3,0.4,0.5,0.8,0.5,1.2v25.7c0,2.8-0.3,5.1-0.9,7c-0.6,1.9-1.6,3.4-2.8,4.6c-1.2,1.2-2.8,2-4.7,2.5
					c-1.9,0.5-4.2,0.7-6.7,0.7h-0.5c-2.5,0-4.7-0.2-6.6-0.7c-1.9-0.5-3.4-1.3-4.7-2.5c-1.3-1.2-2.2-2.7-2.8-4.6
					c-0.6-1.9-0.9-4.2-0.9-7v-26c0-0.2,0.2-0.4,0.6-0.6s0.9-0.3,1.4-0.4c0.6-0.1,1.1-0.2,1.7-0.3c0.6-0.1,1.1-0.1,1.4-0.1
					c0.5,0,0.9,0.2,1.2,0.5c0.3,0.4,0.5,0.8,0.5,1.2v25.4c0,1.6,0.1,3,0.4,4.2s0.7,2.1,1.3,2.8c0.6,0.7,1.5,1.3,2.5,1.6
					c1.1,0.3,2.4,0.5,4,0.5h0.5c1.6,0,3-0.2,4.1-0.5c1.1-0.3,1.9-0.9,2.6-1.6c0.6-0.7,1.1-1.7,1.4-2.8
					C123.4,349.5,123.5,348.1,123.5,346.5z"/>
				<path fill="#FFFFFF" d="M162.9,349.1v-28.5c0-0.2,0.2-0.4,0.6-0.5c0.4-0.1,0.9-0.2,1.5-0.3c0.6-0.1,1.1-0.1,1.7-0.2
					c0.6,0,1.1-0.1,1.4-0.1c1,0,1.5,0.6,1.5,1.7v39.1c0,0.5-0.2,0.8-0.5,1.1c-0.4,0.3-0.7,0.4-1.2,0.4c-0.3,0-0.7,0-1.2,0
					s-1-0.1-1.5-0.2c-0.5-0.1-1-0.2-1.4-0.3c-0.4-0.1-0.7-0.3-0.9-0.5l-18.5-28.4v28c0,0.5-0.2,0.8-0.5,1.1s-0.7,0.4-1.2,0.4
					c-0.3,0-0.8,0-1.4-0.1c-0.6,0-1.1-0.1-1.7-0.2c-0.5-0.1-1-0.2-1.4-0.4s-0.6-0.4-0.6-0.6v-39.9c0-0.2,0.2-0.4,0.6-0.6
					c0.4-0.2,0.9-0.3,1.4-0.4c0.5-0.1,1.1-0.1,1.7-0.2c0.6,0,1-0.1,1.4-0.1c0.4,0,0.8,0.1,1.1,0.4c0.3,0.2,0.5,0.5,0.7,0.8
					L162.9,349.1z"/>
				<path fill="#FFFFFF" d="M183.7,360.1c0,0.5-0.2,0.8-0.5,1.1s-0.8,0.4-1.2,0.4c-0.3,0-0.8,0-1.4-0.1c-0.6,0-1.1-0.1-1.7-0.2
					c-0.5-0.1-1-0.2-1.4-0.4s-0.6-0.4-0.6-0.6v-39.9c0-0.2,0.2-0.4,0.6-0.6c0.4-0.2,0.9-0.3,1.4-0.4c0.6-0.1,1.1-0.1,1.7-0.2
					c0.6,0,1-0.1,1.4-0.1c0.5,0,0.9,0.2,1.2,0.5c0.3,0.3,0.5,0.7,0.5,1.1V360.1z"/>
				<path fill="#FFFFFF" d="M205.7,350.1l8.6-29.5c0.5-0.5,1.1-0.9,1.8-1c0.7-0.1,1.5-0.2,2.4-0.2c0.4,0,0.8,0,1.2,0.1
					c0.4,0,0.7,0.1,1,0.3c0.3,0.1,0.5,0.3,0.6,0.6c0.1,0.2,0.1,0.6,0,1.1l-13.1,39.4c-0.1,0.3-0.3,0.5-0.6,0.7
					c-0.3,0.2-0.7,0.2-1,0.2c-1.2,0-2.3-0.1-3.2-0.2s-1.4-0.3-1.6-0.7l-13.2-39.5c-0.1-0.4-0.1-0.7,0-0.9c0.1-0.2,0.3-0.4,0.5-0.6
					c0.2-0.2,0.5-0.3,0.8-0.3c0.3-0.1,0.5-0.1,0.7-0.1c0.6,0,1.1,0,1.7,0.1c0.6,0,1.1,0.1,1.6,0.2c0.5,0.1,0.9,0.2,1.3,0.4
					c0.3,0.2,0.6,0.4,0.7,0.7l8.8,29.2c0.2,0.5,0.3,0.9,0.3,1.4c0.1,0.5,0.1,1,0.2,1.4c0-0.4,0.1-0.9,0.1-1.4
					C205.5,351,205.6,350.5,205.7,350.1z"/>
				<path fill="#FFFFFF" d="M226.6,359.9v-38.3c0-0.5,0.2-0.9,0.5-1.1c0.3-0.2,0.8-0.4,1.2-0.4h22.8c0.4,0,0.8,0.2,1.1,0.5
					c0.3,0.3,0.4,0.7,0.4,1.1c0,0.3,0,0.7-0.1,1.2s-0.1,1-0.2,1.5c-0.1,0.5-0.2,0.9-0.3,1.2c-0.2,0.3-0.3,0.5-0.6,0.5h-18.1v11H249
					c0.4,0,0.7,0.2,1,0.5c0.3,0.3,0.4,0.7,0.4,1.1c0,0.3,0,0.7-0.1,1.2c0,0.5-0.1,1-0.2,1.5c-0.1,0.5-0.2,0.9-0.3,1.2
					c-0.2,0.3-0.3,0.5-0.6,0.5h-15.9v11.7h17.7c0.4,0,0.8,0.2,1.1,0.5c0.3,0.3,0.4,0.7,0.4,1.2c0,0.3,0,0.7-0.1,1.2
					c0,0.5-0.1,1-0.2,1.5c-0.1,0.5-0.2,0.9-0.3,1.2c-0.2,0.3-0.3,0.5-0.6,0.5h-22.3c-0.5,0-1.1-0.1-1.7-0.4
					C226.9,360.4,226.6,360.1,226.6,359.9z"/>
				<path fill="#FFFFFF" d="M259.9,360.5v-38.9c0-0.4,0.2-0.8,0.5-1.1c0.3-0.3,0.8-0.4,1.2-0.4h12.5c2.6,0,4.8,0.2,6.7,0.6
					c1.8,0.4,3.3,1,4.5,2c1.2,0.9,2,2.2,2.6,3.8c0.5,1.6,0.8,3.6,0.8,6v1.2c0,1.8-0.1,3.3-0.4,4.7s-0.7,2.5-1.3,3.4
					c-0.6,0.9-1.4,1.7-2.4,2.3c-1,0.6-2.2,1-3.6,1.3l7.9,13.6c0.4,0.7,0.6,1.3,0.6,1.6c0,0.2-0.1,0.4-0.3,0.6
					c-0.2,0.2-0.4,0.3-0.6,0.3c-0.2,0.1-0.5,0.1-0.7,0.1c-0.2,0-0.4,0-0.5,0c-0.3,0-0.8,0-1.3-0.1c-0.5,0-1.1-0.1-1.6-0.2
					c-0.5-0.1-1-0.2-1.5-0.4c-0.4-0.2-0.7-0.5-0.9-0.8l-8.4-14.3h-7v14.3c0,0.5-0.2,0.8-0.5,1.1c-0.3,0.3-0.7,0.4-1.2,0.4
					c-0.3,0-0.8,0-1.4-0.1c-0.6,0-1.1-0.1-1.7-0.2c-0.5-0.1-1-0.2-1.4-0.4C260.1,360.9,259.9,360.7,259.9,360.5z M274.6,326.1h-7.9
					v13.7h7.9c1.6,0,2.8-0.1,3.7-0.3c0.9-0.2,1.6-0.5,2.2-0.9c0.5-0.5,0.9-1.1,1-1.9c0.2-0.8,0.3-1.8,0.3-3.1v-1.2
					c0-1.3-0.1-2.3-0.3-3.2c-0.2-0.8-0.5-1.4-1-1.9c-0.5-0.5-1.2-0.8-2.2-0.9C277.4,326.2,276.1,326.1,274.6,326.1z"/>
				<path fill="#FFFFFF" d="M296.4,354.7c0.3,0.1,0.8,0.2,1.4,0.3c0.6,0.2,1.3,0.3,2.2,0.5c0.8,0.2,1.7,0.3,2.7,0.4
					c1,0.1,1.9,0.2,2.9,0.2c1.1,0,2.1-0.1,3-0.3c1-0.2,1.8-0.5,2.6-0.9s1.4-0.9,1.8-1.6c0.5-0.7,0.7-1.5,0.7-2.5
					c0-1.4-0.4-2.5-1.3-3.5c-0.9-0.9-2-1.8-3.4-2.7c-1.3-0.8-2.8-1.7-4.4-2.5c-1.6-0.9-3-1.8-4.4-3c-1.3-1.1-2.5-2.4-3.4-4
					c-0.9-1.5-1.3-3.4-1.3-5.6c0-1.9,0.3-3.4,1-4.7c0.7-1.3,1.6-2.3,2.8-3.2c1.2-0.8,2.6-1.4,4.2-1.8c1.6-0.4,3.4-0.6,5.4-0.6
					c0.4,0,1.1,0,1.9,0.1c0.9,0,1.8,0.1,2.7,0.2c0.9,0.1,1.9,0.2,2.8,0.4c0.9,0.2,1.7,0.4,2.2,0.6c0.5,0.2,0.9,0.5,1,0.7
					c0.1,0.3,0.1,0.7,0.1,1.3c-0.1,1-0.3,1.8-0.6,2.5c-0.3,0.7-0.8,0.9-1.4,0.8c-0.9-0.2-2-0.4-3.2-0.6c-1.2-0.2-2.6-0.3-4.1-0.3
					c-2.4,0-4.3,0.3-5.7,1c-1.5,0.7-2.2,1.8-2.2,3.4c0,1.3,0.4,2.3,1.3,3.2c0.9,0.9,2,1.7,3.4,2.6c1.3,0.8,2.8,1.6,4.4,2.5
					c1.6,0.9,3,1.9,4.4,3c1.3,1.2,2.5,2.5,3.4,4.2c0.9,1.6,1.3,3.6,1.3,5.9c0,2.2-0.4,3.9-1.2,5.3c-0.8,1.4-1.9,2.5-3.2,3.3
					c-1.3,0.8-2.9,1.3-4.7,1.6c-1.8,0.3-3.6,0.5-5.5,0.5c-0.9,0-1.8,0-2.7-0.1c-0.9-0.1-1.9-0.1-2.8-0.3c-0.9-0.1-1.8-0.2-2.6-0.4
					c-0.8-0.2-1.5-0.3-2.1-0.5c-0.6-0.2-0.9-0.4-1-0.7c-0.1-0.2-0.1-0.7-0.1-1.3c0.1-1.1,0.3-2,0.6-2.8
					C295.4,354.9,295.8,354.6,296.4,354.7z"/>
				<path fill="#FFFFFF" d="M334.5,360.1c0,0.5-0.2,0.8-0.5,1.1c-0.3,0.3-0.8,0.4-1.2,0.4c-0.3,0-0.8,0-1.4-0.1
					c-0.6,0-1.1-0.1-1.7-0.2c-0.5-0.1-1-0.2-1.4-0.4s-0.6-0.4-0.6-0.6v-39.9c0-0.2,0.2-0.4,0.6-0.6c0.4-0.2,0.9-0.3,1.4-0.4
					c0.6-0.1,1.1-0.1,1.7-0.2c0.6,0,1-0.1,1.4-0.1c0.5,0,0.9,0.2,1.2,0.5c0.3,0.3,0.5,0.7,0.5,1.1V360.1z"/>
				<path fill="#FFFFFF" d="M358.9,326.2v33.9c0,0.5-0.2,0.8-0.5,1.1c-0.4,0.3-0.8,0.4-1.2,0.4c-0.3,0-0.8,0-1.4-0.1
					c-0.6,0-1.1-0.1-1.7-0.2c-0.5-0.1-1-0.2-1.4-0.4s-0.6-0.4-0.6-0.6v-34.3h-10.5c-0.4,0-0.8-0.2-1.1-0.5c-0.3-0.3-0.4-0.7-0.4-1.2
					c0-0.3,0-0.7,0.1-1.2c0-0.5,0.1-1,0.2-1.5c0.1-0.5,0.2-0.9,0.3-1.3c0.2-0.3,0.3-0.5,0.6-0.5h28c0.4,0,0.8,0.2,1.1,0.5
					c0.3,0.3,0.4,0.7,0.4,1.2c0,0.3,0,0.7-0.1,1.2c0,0.5-0.1,1-0.2,1.5c-0.1,0.5-0.2,0.9-0.3,1.2c-0.2,0.3-0.3,0.5-0.6,0.5H358.9z"
					/>
				<path fill="#FFFFFF" d="M395.1,346v14.2c0,0.5-0.2,0.8-0.5,1.1s-0.8,0.4-1.2,0.4c-0.3,0-0.8,0-1.3-0.1c-0.6,0-1.1-0.1-1.7-0.2
					c-0.5-0.1-1-0.2-1.4-0.4s-0.6-0.4-0.6-0.6V346l-12.4-24.2c-0.4-0.8-0.5-1.4-0.2-1.8c0.3-0.4,0.9-0.6,1.8-0.6c0.5,0,1.1,0,1.6,0
					c0.5,0,1.1,0.1,1.5,0.1c0.5,0.1,0.9,0.2,1.2,0.3c0.3,0.1,0.6,0.3,0.7,0.5l9.1,18.6l9.1-18.5c0.1-0.2,0.3-0.4,0.7-0.5
					c0.3-0.1,0.7-0.2,1.2-0.3c0.5-0.1,1-0.1,1.5-0.1c0.6,0,1.1,0,1.6,0c0.9,0,1.4,0.2,1.7,0.5c0.3,0.4,0.2,1-0.2,1.9L395.1,346z"/>
			</g>
		</g>
	</g>
</g>
</svg>
